<svg width="35" height="37" viewBox="0 0 35 37" fill="none" xmlns="http://www.w3.org/2000/svg">
<path d="M33 33.5V15.6063C33 14.7281 32.6151 13.8939 31.947 13.3239L19.447 2.66086C18.3253 1.70404 16.6747 1.70404 15.553 2.66087L3.05302 13.3239C2.38485 13.8939 2 14.7281 2 15.6063V33.5C2 34.3284 2.67157 35 3.5 35H10.1875C11.0159 35 11.6875 34.3284 11.6875 33.5V25.7778C11.6875 23.5686 13.4784 21.7778 15.6875 21.7778H19.3125C21.5216 21.7778 23.3125 23.5686 23.3125 25.7778V33.5C23.3125 34.3284 23.9841 35 24.8125 35H31.5C32.3284 35 33 34.3284 33 33.5Z" stroke="#4C49EA" stroke-width="3"/>
</svg>
