<svg width="29" height="29" viewBox="0 0 29 29" fill="none" xmlns="http://www.w3.org/2000/svg">
<path d="M11.8342 4.23945C12.4054 1.25352 16.5946 1.25352 17.1658 4.23945C17.5134 6.05642 19.4774 7.02094 21.0871 6.16521C23.7325 4.75895 26.3444 8.09898 24.4113 10.4161C23.235 11.8261 23.7201 13.9934 25.3798 14.7433C28.1073 15.9756 27.1751 20.1406 24.1934 20.0441C22.379 19.9853 21.0199 21.7233 21.4798 23.5142C22.2355 26.4571 18.4612 28.3107 16.6762 25.8732C15.5899 24.39 13.4101 24.39 12.3238 25.8732C10.5388 28.3107 6.76447 26.4571 7.52022 23.5142C7.98011 21.7233 6.621 19.9853 4.8066 20.0441C1.82491 20.1406 0.892731 15.9756 3.6202 14.7433C5.27991 13.9934 5.76497 11.8261 4.58869 10.4161C2.65564 8.09898 5.26755 4.75895 7.91289 6.16521C9.52262 7.02094 11.4866 6.05642 11.8342 4.23945Z" stroke="#525252" stroke-width="3"/>
<path d="M18.3235 14.9994C18.3235 17.1528 16.6117 18.8985 14.5 18.8985C12.3883 18.8985 10.6765 17.1528 10.6765 14.9994C10.6765 12.8459 12.3883 11.1002 14.5 11.1002C16.6117 11.1002 18.3235 12.8459 18.3235 14.9994Z" stroke="#525252" stroke-width="3"/>
</svg>
