<svg width="45" height="27" viewBox="0 0 45 27" fill="none" xmlns="http://www.w3.org/2000/svg">
<path d="M13 1.5H10.5C9.11929 1.5 8 2.61929 8 4V7H7C5.61929 7 4.5 8.11929 4.5 9.5C3.11929 9.5 2 10.6193 2 12V15C2 16.3807 3.11929 17.5 4.5 17.5L4.5 18C4.5 19.3807 5.61929 20.5 7 20.5H8V23C8 24.3807 9.11929 25.5 10.5 25.5H13C14.3807 25.5 15.5 24.3807 15.5 23V17.5H29.5V23C29.5 24.3807 30.6193 25.5 32 25.5H34.5C35.8807 25.5 37 24.3807 37 23V20.5H37.5C38.8807 20.5 40 19.3807 40 18V17.5H40.5C41.8807 17.5 43 16.3807 43 15V12C43 10.6193 41.8807 9.5 40.5 9.5H40C40 8.11929 38.8807 7 37.5 7H37V4C37 2.61929 35.8807 1.5 34.5 1.5H32C30.6193 1.5 29.5 2.61929 29.5 4V9.5H15.5V4C15.5 2.61929 14.3807 1.5 13 1.5Z" stroke="#6457E4" stroke-width="3"/>
</svg>
