<svg width="138" height="232" viewBox="0 0 138 232" fill="none" xmlns="http://www.w3.org/2000/svg">
<path d="M45.7022 77.8965C44.4718 77.4864 31.7584 71.3347 34.6292 69.6943C37.4999 68.0538 42.0113 68.4639 44.4719 67.2336C46.9325 66.0032 53.0842 61.492 54.7247 61.9021C56.3651 62.3122 57.1854 76.6662 56.3651 78.3066C55.5448 79.9471 46.9326 78.3066 45.7022 77.8965Z" stroke="#959595" stroke-width="2"/>
<path d="M93.1871 76.2823C94.4175 75.8722 107.131 69.7205 104.26 68.0801C101.389 66.4396 96.878 66.8498 94.4174 65.6194C91.9568 64.3891 85.805 59.8778 84.1646 60.2879C82.5241 60.6981 81.7038 75.052 82.5241 76.6925C83.3445 78.3329 91.9567 76.6925 93.1871 76.2823Z" stroke="#959595" stroke-width="2"/>
<path d="M21.0057 153.997C19.0675 155.148 17.1293 158.6 14.8035 158.216C12.4777 157.833 9.3766 145.557 8.60133 144.79C7.82605 144.023 4.3373 153.23 3.94967 155.148C3.56204 157.066 0.0733 204.249 1.23621 205.783C2.39912 207.318 12.8653 207.701 14.8035 205.783C16.7417 203.865 28.3708 168.19 28.3708 168.19C28.3708 168.19 29.5337 160.134 28.3708 158.984C27.2079 157.833 22.9439 152.846 21.0057 153.997Z" stroke="#959595" stroke-width="2"/>
<path d="M116.332 153.997C118.27 155.148 120.208 158.6 122.534 158.216C124.86 157.833 127.961 145.557 128.736 144.79C129.511 144.023 133 153.23 133.388 155.148C133.775 157.066 137.264 204.249 136.101 205.783C134.938 207.318 124.472 207.701 122.534 205.783C120.596 203.865 108.966 168.19 108.966 168.19C108.966 168.19 107.803 160.134 108.966 158.984C110.129 157.833 114.393 152.846 116.332 153.997Z" stroke="#959595" stroke-width="2"/>
<path d="M12.073 118.088C13.3034 113.986 23.5562 99.2224 23.5562 99.2224C23.5562 99.2224 28.4775 111.526 29.2978 113.986C30.118 116.447 29.7078 131.621 29.2978 134.492C28.8877 137.363 26.0169 145.155 24.7865 146.385C23.5562 147.616 15.3539 154.998 15.3539 154.998C15.3539 154.998 11.6629 148.436 10.8427 146.385C10.0225 144.335 10.8427 122.189 12.073 118.088Z" fill="#2F2BEB" stroke="#959595" stroke-width="2"/>
<path d="M125.328 119.318C124.097 115.217 113.844 100.453 113.844 100.453C113.844 100.453 108.923 112.756 108.103 115.217C107.283 117.677 107.693 132.852 108.103 135.722C108.513 138.593 111.384 146.385 112.614 147.616C113.844 148.846 122.047 156.228 122.047 156.228C122.047 156.228 125.738 149.666 126.558 147.616C127.378 145.565 126.558 123.419 125.328 119.318Z" fill="#2F2BEB" stroke="#959595" stroke-width="2"/>
<path d="M43.6517 164.43C43.2416 150.076 45.7023 130.801 44.8821 129.571C44.0618 128.34 31.3483 121.368 30.5281 122.599C29.7079 123.829 30.5281 135.312 30.5281 135.312C30.5281 135.312 31.7585 141.054 33.3989 143.104C35.0394 145.155 34.6292 188.627 35.0394 191.498C35.4495 194.369 46.9326 203.801 48.5731 204.211C50.2135 204.621 44.0618 178.784 43.6517 164.43Z" stroke="#959595" stroke-width="2"/>
<path d="M93.1427 165.395C93.5528 151.042 91.0921 131.766 91.9124 130.536C92.7326 129.306 105.446 122.334 106.266 123.564C107.087 124.794 106.266 136.277 106.266 136.277C106.266 136.277 105.036 142.019 103.396 144.07C101.755 146.12 102.165 189.592 101.755 192.463C101.345 195.334 89.8618 204.766 88.2214 205.176C86.5809 205.587 92.7326 179.749 93.1427 165.395Z" stroke="#959595" stroke-width="2"/>
<path d="M63.683 176.787C63.2945 175.185 50.0857 175.986 49.3087 177.588C48.5317 179.19 48.1432 188.001 49.3087 192.006C50.4742 196.011 67.9564 231.656 68.7334 230.855C69.5104 230.054 68.7334 221.644 68.7334 216.838C68.7334 212.031 64.0714 178.389 63.683 176.787Z" fill="#A7A7F4" stroke="#959595" stroke-width="2"/>
<path d="M74.6472 176.787C74.9891 175.185 86.6128 175.986 87.2966 177.588C87.9804 179.19 88.3222 188.001 87.2966 192.006C86.271 196.011 70.8866 231.656 70.2028 230.855C69.5191 230.054 70.2028 221.644 70.2028 216.838C70.2028 212.031 74.3054 178.389 74.6472 176.787Z" fill="#A7A7F4" stroke="#959595" stroke-width="2"/>
<path d="M65.7978 170.172C66.2079 168.942 66.6181 160.329 65.7978 157.868C64.9776 155.408 47.7529 158.689 47.7529 160.329C47.7529 161.97 48.5731 173.453 49.3933 174.273C50.2135 175.093 61.2866 174.683 62.5169 174.273C63.7473 173.863 65.3877 171.402 65.7978 170.172Z" fill="#A7A7F4" stroke="#959595" stroke-width="2"/>
<path d="M70.3725 170.236C69.9624 169.006 69.5523 160.394 70.3725 157.933C71.1927 155.472 88.4175 158.753 88.4175 160.394C88.4175 162.034 87.5973 173.517 86.777 174.338C85.9568 175.158 74.8838 174.748 73.6534 174.338C72.4231 173.927 70.7826 171.467 70.3725 170.236Z" fill="#A7A7F4" stroke="#959595" stroke-width="2"/>
<path d="M65.419 141.228C65.9241 144.14 65.9241 152.611 65.419 154.662C64.914 156.712 48.8898 156.637 48.1027 157.032C47.3156 157.428 48.1027 150.316 48.1027 148.735C48.1027 147.155 64.914 138.316 65.419 141.228Z" fill="#A7A7F4" stroke="#959595" stroke-width="2"/>
<path d="M70.2777 141.228C69.7727 144.14 69.7727 152.611 70.2777 154.662C70.7828 156.712 86.807 156.637 87.5941 157.032C88.3812 157.428 87.5941 150.316 87.5941 148.735C87.5941 147.155 70.7828 138.316 70.2777 141.228Z" fill="#A7A7F4" stroke="#959595" stroke-width="2"/>
<path d="M66.0234 125.955C66.8163 126.348 66.8163 135.788 66.0234 136.574C65.2305 137.361 48.1833 146.8 47.3904 147.194C46.5975 147.587 46.994 138.148 47.3904 136.574C47.7869 135.001 48.5798 130.675 50.562 128.708C52.5442 126.742 65.2305 125.562 66.0234 125.955Z" fill="#A7A7F4" stroke="#959595" stroke-width="2"/>
<path d="M70.4936 125.955C69.7007 126.348 69.7007 135.788 70.4936 136.574C71.2865 137.361 88.3337 146.8 89.1266 147.194C89.9195 147.587 89.523 138.148 89.1266 136.574C88.7301 135.001 87.9372 130.675 85.955 128.708C83.9728 126.742 71.2865 125.562 70.4936 125.955Z" fill="#A7A7F4" stroke="#959595" stroke-width="2"/>
<path d="M7.92862 107.678C9.56908 106.857 21.0522 103.166 22.2826 97.4247C23.5129 91.6831 19.4118 85.1213 30.4848 81.0202C41.5579 76.9191 36.2264 75.2786 36.2264 75.2786C36.2264 75.2786 31.7152 67.8966 22.2826 70.7674C12.85 73.6382 7.51851 81.4303 7.1084 87.582C6.69828 93.7337 6.28816 108.498 7.92862 107.678Z" fill="#4C49EA" stroke="#959595" stroke-width="2"/>
<path d="M129.008 107.678C127.367 106.857 115.884 103.166 114.654 97.4247C113.424 91.6831 117.525 85.1213 106.452 81.0202C95.3787 76.9191 100.71 75.2786 100.71 75.2786C100.71 75.2786 105.221 67.8966 114.654 70.7674C124.087 73.6382 129.418 81.4303 129.828 87.582C130.238 93.7337 130.648 108.498 129.008 107.678Z" fill="#4C49EA" stroke="#959595" stroke-width="2"/>
<path d="M49.3931 15.149C49.3932 34.0144 48.1627 47.5479 53.0841 52.0591C58.0054 56.5704 61.6967 63.1322 64.9774 63.1322H74.41C78.1012 63.1322 80.5618 57.3906 85.0729 52.0591C89.584 46.7276 88.7641 34.0142 88.7639 15.149C88.7637 -3.7162 49.3929 -3.71646 49.3931 15.149Z" stroke="#959595" stroke-width="2"/>
<path d="M64.9776 118.498C66.6181 107.015 65.3878 85.2786 63.7473 82.8179C62.1068 80.3572 35.8596 82.8179 33.399 82.8179C30.9383 82.8179 26.3245 85.2786 25.6068 88.1493C24.8891 91.0201 24.7866 90.61 25.6068 97.5819C26.427 104.554 28.8877 108.655 31.7585 118.498C34.6293 128.34 63.3372 129.981 64.9776 118.498Z" fill="#2F2BEB" stroke="#959595" stroke-width="2"/>
<path d="M72.3141 118.361C70.6736 106.878 71.9039 85.1419 73.5444 82.6812C75.1849 80.2205 101.432 82.6812 103.893 82.6812C106.353 82.6812 110.967 85.1419 111.685 88.0127C112.403 90.8834 112.505 90.4733 111.685 97.4452C110.865 104.417 108.404 108.518 105.533 118.361C102.662 128.204 73.9545 129.844 72.3141 118.361Z" fill="#2F2BEB" stroke="#959595" stroke-width="2"/>
</svg>
